<?xml version="1.0" encoding="UTF-8"?>
<svg width="16px" height="16px" viewBox="0 0 16 16" version="1.1" xmlns="http://www.w3.org/2000/svg" xmlns:xlink="http://www.w3.org/1999/xlink">
    <!-- Generator: Sketch 50 (54983) - http://www.bohemiancoding.com/sketch -->
    <title>facebook</title>
    <desc>Created with Sketch.</desc>
    <defs/>
    <g id="Mobile" stroke="none" stroke-width="1" fill="none" fill-rule="evenodd">
        <g id="2/3" transform="translate(-230.000000, -412.000000)" fill="#475993" fill-rule="nonzero">
            <g id="facebook" transform="translate(230.000000, 412.000000)">
                <path d="M13.8367139,0 L2.15499267,0 C0.964889976,0 7.82396088e-05,0.964772616 7.82396088e-05,2.15491443 L7.82396088e-05,13.8367139 C7.82396088e-05,15.0268557 0.964850856,15.9916284 2.15499267,15.9916284 L7.91636186,15.9916284 L7.92618093,10.2770856 L6.44154523,10.2770856 C6.24860636,10.2770856 6.09200978,10.1210758 6.0912665,9.92813692 L6.0841467,8.08610269 C6.08340342,7.89210758 6.24046944,7.73445477 6.43446455,7.73445477 L7.91640098,7.73445477 L7.91640098,5.95458191 C7.91640098,3.88905623 9.17789731,2.76436186 11.0204792,2.76436186 L12.5324597,2.76436186 C12.7259071,2.76436186 12.8827775,2.92119315 12.8827775,3.11467971 L12.8827775,4.66789242 C12.8827775,4.86130073 12.7260244,5.01809291 12.5326553,5.01821027 L11.6047726,5.01864059 C10.6027188,5.01864059 10.4086846,5.49480685 10.4086846,6.19360391 L10.4086846,7.73449389 L12.6105428,7.73449389 C12.8203423,7.73449389 12.9831198,7.91769193 12.9583961,8.12604401 L12.7400685,9.96807824 C12.7191785,10.1443521 12.5697017,10.2771638 12.3922152,10.2771638 L10.4185037,10.2771638 L10.4086846,15.9917066 L13.8367922,15.9917066 C15.0268949,15.9917066 15.9916675,15.026934 15.9916675,13.8368313 L15.9916675,2.15491443 C15.9916284,0.964772616 15.0268557,0 13.8367139,0 Z" id="Shape"/>
            </g>
        </g>
    </g>
</svg>