<svg xmlns="http://www.w3.org/2000/svg" xmlns:xlink="http://www.w3.org/1999/xlink" width="604" height="604" viewBox="0 0 604 604">
  <metadata><?xpacket begin="﻿" id="W5M0MpCehiHzreSzNTczkc9d"?>
<x:xmpmeta xmlns:x="adobe:ns:meta/" x:xmptk="Adobe XMP Core 5.6-c138 79.159824, 2016/09/14-01:09:01        ">
   <rdf:RDF xmlns:rdf="http://www.w3.org/1999/02/22-rdf-syntax-ns#">
      <rdf:Description rdf:about=""/>
   </rdf:RDF>
</x:xmpmeta>
                                                                                                    
                                                                                                    
                                                                                                    
                                                                                                    
                                                                                                    
                                                                                                    
                                                                                                    
                                                                                                    
                                                                                                    
                                                                                                    
                                                                                                    
                                                                                                    
                                                                                                    
                                                                                                    
                                                                                                    
                                                                                                    
                                                                                                    
                                                                                                    
                                                                                                    
                                                                                                    
                           
<?xpacket end="w"?></metadata>
<defs>
    <style>
      .cls-1 {
        fill: #ed1c24;
        fill-rule: evenodd;
        opacity: 0.05;
        filter: url(#filter);
      }
    </style>
    <filter id="filter" x="130" y="85" width="604" height="604" filterUnits="userSpaceOnUse">
      <feFlood result="flood" flood-color="#6e6873"/>
      <feComposite result="composite" operator="in" in2="SourceGraphic"/>
      <feBlend result="blend" in2="SourceGraphic"/>
    </filter>
  </defs>
  <path id="Shape_1_copy_7" data-name="Shape 1 copy 7" class="cls-1" d="M428.756,88.208l-15.1,15.1L399.661,117.2l-30.35.013-1.895,0-1.325,1.326-10.524,10.525-1.324,1.325,0,1.887-0.029,30.476-28.965,28.969-3.228,3.228,3.212,3.212,24.9,24.905-14.256,14.258-22.716-22.719-1.333-1.333h-1.9l-36.681.008h-1.89l-1.334,1.334-10.535,10.537-1.341,1.341,0.016,1.875-0.016,36.694,0.012,1.887,1.333,1.333L282.214,291,267.969,305.25l-24.9-24.9-3.211-3.212-3.212,3.212-28.981,28.985-30.464.02h-1.891l-1.333,1.333-10.519,10.521-1.318,1.318,0,1.895L162.1,354.932l-13.824,13.8-15.141,15.143-3.114,3.115h-0.028L130.006,387l-0.014.014h0.028l3.114,3.114,15.141,15.143,13.824,13.8,0.036,30.514,0,1.895,1.318,1.317,10.519,10.521,1.333,1.334H177.2l30.464,0.021,28.981,28.985,3.212,3.212,3.211-3.212,24.9-24.9L282.214,483,259.5,505.714l-1.333,1.333-0.012,1.887,0.016,36.695-0.016,1.874,1.341,1.342,10.535,10.537,1.334,1.333h1.89l36.681,0.008h1.9l1.333-1.333,22.716-22.719,14.256,14.259-24.9,24.9-3.212,3.212,3.228,3.228,28.965,28.97,0.029,30.476,0,1.887,1.324,1.325,10.524,10.525,1.325,1.325,1.895,0,30.35,0.012,13.994,13.891,15.1,15.1L431.968,689l0.03-.03V661.2l-0.03.031-14.22-14.222,14.224-14.226L432,632.81V604.942l-0.042.043L413.6,586.63l0.028-40.965v-4.541l-4.544,0-35.272,0,0.041-20.162,32.152-.028,1.874,0.016,1.35-1.349,22.732-22.735L432,496.9V469.058l-0.054.055-22.716-22.719-1.333-1.333L406,445.053l-32.148.024V412.9l-0.008-1.891-1.334-1.333L349.842,387l22.672-22.676,1.334-1.333,0.008-1.891V328.922L406,328.947l1.891-.008,1.333-1.334,22.716-22.718L432,304.942V277.1l-0.034.035L409.232,254.4l-1.35-1.35-1.874.016-32.152-.028-0.041-20.161,35.272,0,4.544,0v-4.542L413.6,187.37l18.353-18.355L432,169.057V141.19l-0.026.027-14.224-14.226,14.22-14.222L432,112.8V85.026l-0.03-.03ZM181.773,328.947l32.132,0.041,1.871,0,1.332-1.333,22.785-22.788,18.3,18.3-0.036,25.951-32.173.008-1.867-.024-1.341,1.342L200.029,373.2l-18.3-18.3Zm-9.821,72.232L157.775,387l14.177-14.179L186.129,387Zm67.941,67.95-22.785-22.787-1.332-1.334-1.871,0-32.132.041L181.732,419.1l18.3-18.3,22.747,22.751,1.341,1.341,1.867-.024,32.173,0.008,0.036,25.952Zm37.865-24.076,0.028-35.252-0.009-4.55-4.536,0-40.983,0L214,387l18.258-18.26,40.983,0,4.536,0,0.009-4.549-0.028-35.252,20.187,0.012,0.04,32.145,0,1.862,1.349,1.35L322.01,387l-22.68,22.684-1.349,1.349,0,1.863-0.04,32.144Zm116.252,115.7-0.028,32.14,0,1.887L395.3,596.1l22.768,22.771L399.742,637.2l-25.9-.053,0.036-32.14,0-1.871-1.35-1.35-22.74-22.743,18.3-18.3Zm-39.763-96.059,4.528,0,41-.012,18.3,18.306L399.75,501.31l-40.995-.016-4.532.032-0.013,4.513,0,21.394-15.126-15.127-3.211-3.212-3.212,3.212-29,29-25.839.008-0.032-25.882,29-29,3.212-3.212-3.22-3.22-15.092-15.1,21.383,0,4.528,0,0.016-4.549-0.04-41.026L335.91,400.8l18.329,18.331-0.008,41.009Zm45.5-192,18.328,18.331-18.3,18.307-41-.012-4.528,0-0.016,4.55,0.008,41.009L335.91,373.2,317.582,354.87l0.04-41.026-0.016-4.549-4.528,0-21.383,0,15.092-15.1,3.22-3.22-3.212-3.212-29-29.006,0.032-25.882,25.839,0.008,29,29,3.212,3.213,3.211-3.213,15.126-15.127,0,21.394,0.013,4.513,4.532,0.032Zm18.321-117.561L395.3,177.9l-1.325,1.325,0,1.887,0.028,32.141-25.915,0-18.3-18.3,22.74-22.743,1.35-1.349,0-1.871-0.036-32.141,25.9-.052ZM733.994,387l0.014-.014H733.98l-3.114-3.115-15.141-15.143-13.825-13.8-0.035-30.514,0-1.895-1.318-1.318-10.519-10.521-1.333-1.333H686.8l-30.464-.02-28.981-28.985-3.212-3.212-3.211,3.212-24.9,24.9L581.786,291,604.5,268.285l1.333-1.333,0.012-1.887-0.016-36.694,0.016-1.875-1.341-1.341L593.97,214.618l-1.333-1.334h-1.891l-36.68-.008h-1.9l-1.333,1.333-22.716,22.719L513.862,223.07l24.9-24.9,3.211-3.212-3.228-3.228-28.964-28.969-0.029-30.476,0-1.887-1.325-1.325-10.523-10.525-1.325-1.326-1.895,0-30.35-.013-14-13.891-15.1-15.1L432.032,85l-0.03.03V112.8l0.03-.031,14.22,14.222-14.224,14.226L432,141.19v27.867l0.042-.042L450.4,187.37l-0.028,40.964v4.542l4.544,0,35.272,0-0.041,20.161-32.152.028-1.875-.016-1.349,1.35-22.732,22.735L432,277.1v27.843l0.054-.055,22.716,22.718,1.333,1.334L458,328.947l32.148-.025V361.1l0.008,1.891,1.334,1.333L514.158,387l-22.672,22.676-1.334,1.333-0.008,1.891v32.177L458,445.053l-1.891.008-1.333,1.333-22.716,22.719L432,469.058V496.9l0.034-.034L454.768,519.6l1.349,1.349,1.875-.016,32.152,0.028,0.041,20.162-35.272,0-4.544,0v4.541L450.4,586.63l-18.353,18.355L432,604.942V632.81l0.026-.027,14.224,14.226-14.22,14.222L432,661.2v27.774l0.03,0.03,3.212-3.212,15.1-15.1,14-13.891,30.35-.012,1.895,0,1.325-1.325,10.523-10.525,1.325-1.325,0-1.887,0.029-30.476,28.964-28.97,3.228-3.228-3.211-3.212-24.9-24.9,14.256-14.259,22.716,22.719,1.333,1.333h1.9l36.68-.008h1.891l1.333-1.333,10.536-10.537,1.341-1.342-0.016-1.874,0.016-36.695-0.012-1.887-1.333-1.333L581.786,483l14.245-14.246,24.9,24.9,3.211,3.212,3.212-3.212,28.981-28.985,30.464-.021h1.891l1.333-1.334,10.519-10.521,1.318-1.317,0-1.895,0.035-30.514,13.825-13.8,15.141-15.143,3.114-3.114h0.028ZM624.107,304.87l22.784,22.788,1.333,1.333,1.871,0,32.132-.041,0.04,25.955-18.3,18.3L641.223,350.45l-1.34-1.342-1.867.024-32.173-.008-0.036-25.951ZM469.99,213.252l0.028-32.141,0-1.887L468.7,177.9l-22.768-22.771L464.257,136.8l25.9,0.052L490.12,168.99l0,1.871,1.35,1.349,22.739,22.743-18.3,18.3Zm39.763,96.059-4.528,0-41,.012-18.3-18.307,18.328-18.331,41,0.016,4.532-.032,0.013-4.513,0-21.394,15.124,15.127,3.212,3.213,3.212-3.213,29-29,25.839-.008,0.032,25.882-29,29.006-3.211,3.212,3.219,3.22L572.3,309.3l-21.382,0-4.529,0-0.016,4.549,0.04,41.026L528.09,373.2,509.761,354.87l0.008-41.009Zm4.452,269.735-22.739,22.743-1.35,1.35,0,1.871,0.037,32.14-25.9.053-18.328-18.331L468.7,596.1l1.325-1.326,0-1.887-0.028-32.14,25.915,0Zm72-63.809-0.032,25.882-25.839-.008-29-29-3.212-3.212-3.212,3.212-15.124,15.127,0-21.394-0.013-4.513-4.532-.032-41,.016-18.328-18.331,18.3-18.306,41,0.012,4.528,0,0.016-4.55-0.008-41.009L528.09,400.8l18.328,18.331-0.04,41.026,0.016,4.549,4.529,0,21.382,0-15.093,15.1-3.219,3.22,3.211,3.212Zm4.553-109.982-4.537,0-0.008,4.55,0.028,35.252-20.186-.013L566.015,412.9l0-1.863-1.349-1.349L541.989,387l22.681-22.684,1.349-1.35,0-1.862,0.041-32.145,20.186-.012L586.214,364.2l0.008,4.549,4.537,0,40.983,0L650,387l-18.257,18.259Zm91.468,39.8-32.132-.041-1.871,0-1.333,1.334-22.784,22.787-18.3-18.3,0.036-25.952,32.173-.008,1.867,0.024,1.34-1.341L663.971,400.8l18.3,18.3Zm9.821-43.874L677.871,387l14.177-14.179L706.225,387Z" transform="translate(-130 -85)"/>
</svg>
