<?xml version="1.0" encoding="UTF-8"?>
<svg width="16px" height="16px" viewBox="0 0 16 16" version="1.1" xmlns="http://www.w3.org/2000/svg" xmlns:xlink="http://www.w3.org/1999/xlink">
    <!-- Generator: Sketch 51.1 (57501) - http://www.bohemiancoding.com/sketch -->
    <title>whatsapp</title>
    <desc>Created with Sketch.</desc>
    <defs/>
    <g id="Page-1" stroke="none" stroke-width="1" fill="none" fill-rule="evenodd">
        <g id="whatsapp" fill="#7AD06D" fill-rule="nonzero">
            <path d="M7.61265385,0.00924105012 C3.36538462,0.210023866 0.0136923077,3.72185203 0.0265769231,7.94348449 C0.0305,9.22928878 0.343153846,10.4429212 0.894692308,11.5152649 L0.0478846154,15.5963341 C0.00207692308,15.8170883 0.202615385,16.0103866 0.4235,15.9584535 L4.45130769,15.0110167 C5.48611538,15.5227876 6.64842308,15.8183866 7.87853846,15.8370215 C12.2196538,15.9028544 15.8393846,12.4805728 15.9746923,8.1721432 C16.1197308,3.55379475 12.2805769,-0.21147494 7.61265385,0.00924105012 Z M12.4186923,12.3034654 C11.2391154,13.4745967 9.67076923,14.1195609 8.00261538,14.1195609 C7.02584615,14.1195609 6.09069231,13.9019761 5.22303846,13.4728783 L4.66211538,13.1954558 L2.19265385,13.7763437 L2.71246154,11.2710644 L2.43611538,10.7337852 C1.98569231,9.85798568 1.75730769,8.91093079 1.75730769,7.91896897 C1.75730769,6.26272076 2.40692308,4.705642 3.5865,3.53447255 C4.75553846,2.3738043 6.34946154,1.7183389 8.00273077,1.7183389 C9.67088462,1.71837709 11.2391538,2.36334129 12.4187308,3.53443437 C13.5983077,4.70556563 14.2479231,6.26264439 14.2479615,7.91885442 C14.2479231,9.56032458 13.5877308,11.1428353 12.4186923,12.3034654 Z" id="Shape"/>
            <path d="M11.8735385,9.63631504 L10.3285769,9.19587589 C10.1254615,9.13798568 9.90673077,9.19518854 9.75873077,9.34491647 L9.38092308,9.72708353 C9.22161538,9.88822912 8.97988462,9.94000955 8.76903846,9.85531265 C8.03819231,9.5616611 6.50080769,8.20452506 6.10819231,7.52568974 C5.99492308,7.32987112 6.01365385,7.08505967 6.15273077,6.90638663 L6.48257692,6.48271122 C6.61180769,6.31671599 6.63907692,6.0937852 6.55361538,5.90189976 L5.90361538,4.44231026 C5.74792308,4.09271599 5.29796154,3.99094988 5.004,4.2377852 C4.57280769,4.59986635 4.06119231,5.15009069 3.999,5.75965632 C3.88934615,6.83436754 4.35357692,8.18913604 6.10907692,9.81586635 C8.13715385,11.6951981 9.76123077,11.9434845 10.8186538,11.6891647 C11.4184231,11.5449356 11.8977308,10.9667208 12.2002308,10.4932888 C12.4064615,10.1705012 12.2436154,9.74182339 11.8735385,9.63631504 Z" id="Shape"/>
        </g>
    </g>
</svg>